<svg xmlns="http://www.w3.org/2000/svg" version="1.1" xmlns:xlink="http://www.w3.org/1999/xlink" xmlns:svgjs="http://svgjs.dev/svgjs" viewBox="0 0 6.324374798406183 2.0038071944292555"><g transform="matrix(1,0,0,1,0.28679129252712743,0.5773430503396276)"><g><path d=" M 0.23974609375 0.84912109375 Q 0.22509765625 0.84912109375 0.20556640625 0.845947265625 Q 0.18603515625 0.8427734375 0.165283203125 0.83251953125 Q 0.14453125 0.822265625 0.12451171875 0.803466796875 Q 0.1044921875 0.78466796875 0.088623046875 0.753662109375 Q 0.07275390625 0.72265625 0.06298828125 0.677490234375 Q 0.05322265625 0.63232421875 0.05322265625 0.56982421875 L 0.05322265625 0.2744140625 Q 0.05322265625 0.21142578125 0.0634765625 0.166748046875 Q 0.07373046875 0.1220703125 0.0908203125 0.091552734375 Q 0.10791015625 0.06103515625 0.130126953125 0.04296875 Q 0.15234375 0.02490234375 0.17626953125 0.015380859375 Q 0.2001953125 0.005859375 0.2236328125 0.0029296875 Q 0.2470703125 0 0.26708984375 0 Q 0.31787109375 0 0.352783203125 0.013916015625 Q 0.3876953125 0.02783203125 0.409423828125 0.052001953125 Q 0.43115234375 0.076171875 0.440673828125 0.1083984375 Q 0.4501953125 0.140625 0.4501953125 0.1767578125 Q 0.4501953125 0.20361328125 0.447021484375 0.226318359375 Q 0.44384765625 0.2490234375 0.4384765625 0.2763671875 L 0.33740234375 0.2763671875 L 0.33740234375 0.23681640625 Q 0.33740234375 0.099609375 0.263671875 0.099609375 Q 0.24365234375 0.099609375 0.22900390625 0.1064453125 Q 0.21435546875 0.11328125 0.20458984375 0.129638671875 Q 0.19482421875 0.14599609375 0.190185546875 0.1728515625 Q 0.185546875 0.19970703125 0.185546875 0.23974609375 L 0.185546875 0.61767578125 Q 0.185546875 0.65673828125 0.190185546875 0.6826171875 Q 0.19482421875 0.70849609375 0.204345703125 0.72412109375 Q 0.2138671875 0.73974609375 0.228271484375 0.746337890625 Q 0.24267578125 0.7529296875 0.2626953125 0.7529296875 Q 0.28369140625 0.7529296875 0.298828125 0.741943359375 Q 0.31396484375 0.73095703125 0.32373046875 0.7119140625 Q 0.33349609375 0.69287109375 0.338134765625 0.6669921875 Q 0.3427734375 0.64111328125 0.3427734375 0.61083984375 L 0.3427734375 0.501953125 L 0.27783203125 0.501953125 L 0.27783203125 0.4189453125 L 0.4658203125 0.4189453125 L 0.4658203125 0.84130859375 L 0.3818359375 0.84130859375 L 0.3681640625 0.76220703125 Q 0.34423828125 0.80859375 0.313232421875 0.828857421875 Q 0.2822265625 0.84912109375 0.23974609375 0.84912109375 M 0.58251953125 0.00732421875 L 0.8916015625 0.00732421875 L 0.8916015625 0.10693359375 L 0.708984375 0.10693359375 L 0.708984375 0.3564453125 L 0.85009765625 0.3564453125 L 0.85009765625 0.4560546875 L 0.708984375 0.4560546875 L 0.708984375 0.74169921875 L 0.896484375 0.74169921875 L 0.896484375 0.84130859375 L 0.58251953125 0.84130859375 L 0.58251953125 0.00732421875 M 0.95556640625 0.67236328125 Q 0.95556640625 0.6455078125 0.958740234375 0.622802734375 Q 0.9619140625 0.60009765625 0.96826171875 0.57373046875 L 1.06640625 0.57373046875 L 1.06640625 0.6142578125 Q 1.06640625 0.64794921875 1.070556640625 0.673828125 Q 1.07470703125 0.69970703125 1.084228515625 0.717529296875 Q 1.09375 0.7353515625 1.109619140625 0.744384765625 Q 1.12548828125 0.75341796875 1.1484375 0.75341796875 Q 1.1845703125 0.75341796875 1.20361328125 0.733642578125 Q 1.22265625 0.7138671875 1.22265625 0.67578125 Q 1.22265625 0.65625 1.219970703125 0.639892578125 Q 1.21728515625 0.62353515625 1.210693359375 0.607421875 Q 1.2041015625 0.59130859375 1.19287109375 0.573486328125 Q 1.181640625 0.5556640625 1.1640625 0.53369140625 L 1.0322265625 0.376953125 Q 0.9970703125 0.33203125 0.97802734375 0.286376953125 Q 0.958984375 0.24072265625 0.958984375 0.18896484375 Q 0.958984375 0.1474609375 0.971923828125 0.11279296875 Q 0.98486328125 0.078125 1.00927734375 0.052978515625 Q 1.03369140625 0.02783203125 1.069580078125 0.013916015625 Q 1.10546875 0 1.15087890625 0 Q 1.2060546875 0 1.242919921875 0.015625 Q 1.27978515625 0.03125 1.3017578125 0.056640625 Q 1.32373046875 0.08203125 1.332763671875 0.113525390625 Q 1.341796875 0.14501953125 1.341796875 0.1767578125 Q 1.341796875 0.20361328125 1.337646484375 0.226318359375 Q 1.33349609375 0.2490234375 1.328125 0.2763671875 L 1.23046875 0.2763671875 L 1.23046875 0.23681640625 Q 1.23046875 0.17041015625 1.21142578125 0.135009765625 Q 1.1923828125 0.099609375 1.1494140625 0.099609375 Q 1.11376953125 0.099609375 1.09619140625 0.119384765625 Q 1.07861328125 0.13916015625 1.07861328125 0.17236328125 Q 1.07861328125 0.18994140625 1.081298828125 0.2041015625 Q 1.083984375 0.21826171875 1.089111328125 0.230224609375 Q 1.09423828125 0.2421875 1.1015625 0.25341796875 Q 1.10888671875 0.2646484375 1.1181640625 0.27685546875 L 1.26513671875 0.45458984375 Q 1.30517578125 0.5068359375 1.32666015625 0.554931640625 Q 1.34814453125 0.60302734375 1.34814453125 0.65673828125 Q 1.34814453125 0.701171875 1.334228515625 0.73681640625 Q 1.3203125 0.7724609375 1.29443359375 0.79736328125 Q 1.2685546875 0.822265625 1.23193359375 0.835693359375 Q 1.1953125 0.84912109375 1.1494140625 0.84912109375 Q 1.0927734375 0.84912109375 1.055419921875 0.833984375 Q 1.01806640625 0.81884765625 0.995849609375 0.7939453125 Q 0.9736328125 0.76904296875 0.964599609375 0.7373046875 Q 0.95556640625 0.70556640625 0.95556640625 0.67236328125 M 1.53173828125 0.10693359375 L 1.3974609375 0.10693359375 L 1.3974609375 0.00732421875 L 1.7919921875 0.00732421875 L 1.7919921875 0.10693359375 L 1.658203125 0.10693359375 L 1.658203125 0.84130859375 L 1.53173828125 0.84130859375 L 1.53173828125 0.10693359375 M 1.87744140625 0.00732421875 L 2.00390625 0.00732421875 L 2.00390625 0.84130859375 L 1.87744140625 0.84130859375 L 1.87744140625 0.00732421875 M 2.3310546875 0.8486328125 Q 2.31103515625 0.8486328125 2.28759765625 0.845458984375 Q 2.26416015625 0.84228515625 2.2412109375 0.83203125 Q 2.21826171875 0.82177734375 2.197021484375 0.802978515625 Q 2.17578125 0.7841796875 2.159423828125 0.75341796875 Q 2.14306640625 0.72265625 2.13330078125 0.677490234375 Q 2.12353515625 0.63232421875 2.12353515625 0.56982421875 L 2.12353515625 0.2744140625 Q 2.12353515625 0.21142578125 2.133544921875 0.166748046875 Q 2.1435546875 0.1220703125 2.16015625 0.091552734375 Q 2.1767578125 0.06103515625 2.197998046875 0.04296875 Q 2.21923828125 0.02490234375 2.242431640625 0.015380859375 Q 2.265625 0.005859375 2.28857421875 0.0029296875 Q 2.3115234375 0 2.3310546875 0 Q 2.349609375 0 2.372314453125 0.002685546875 Q 2.39501953125 0.00537109375 2.417724609375 0.014404296875 Q 2.4404296875 0.0234375 2.4619140625 0.041259765625 Q 2.4833984375 0.05908203125 2.5 0.089599609375 Q 2.5166015625 0.1201171875 2.526611328125 0.165283203125 Q 2.53662109375 0.21044921875 2.53662109375 0.2744140625 L 2.53662109375 0.56982421875 Q 2.53662109375 0.6318359375 2.5263671875 0.676513671875 Q 2.51611328125 0.72119140625 2.49951171875 0.752197265625 Q 2.48291015625 0.783203125 2.461181640625 0.802001953125 Q 2.439453125 0.82080078125 2.416748046875 0.831298828125 Q 2.39404296875 0.841796875 2.37158203125 0.84521484375 Q 2.34912109375 0.8486328125 2.3310546875 0.8486328125 M 2.3310546875 0.75341796875 Q 2.349609375 0.75341796875 2.363525390625 0.7470703125 Q 2.37744140625 0.74072265625 2.386474609375 0.72509765625 Q 2.3955078125 0.70947265625 2.400146484375 0.683837890625 Q 2.40478515625 0.658203125 2.40478515625 0.619140625 L 2.40478515625 0.23974609375 Q 2.40478515625 0.19970703125 2.400146484375 0.1728515625 Q 2.3955078125 0.14599609375 2.386474609375 0.129638671875 Q 2.37744140625 0.11328125 2.363525390625 0.1064453125 Q 2.349609375 0.099609375 2.3310546875 0.099609375 Q 2.31201171875 0.099609375 2.2978515625 0.1064453125 Q 2.28369140625 0.11328125 2.2744140625 0.129638671875 Q 2.26513671875 0.14599609375 2.260498046875 0.1728515625 Q 2.255859375 0.19970703125 2.255859375 0.23974609375 L 2.255859375 0.619140625 Q 2.255859375 0.658203125 2.260498046875 0.683837890625 Q 2.26513671875 0.70947265625 2.2744140625 0.72509765625 Q 2.28369140625 0.74072265625 2.2978515625 0.7470703125 Q 2.31201171875 0.75341796875 2.3310546875 0.75341796875 M 2.65625 0.00732421875 L 2.7587890625 0.00732421875 L 2.9609375 0.5654296875 L 2.9638671875 0.5654296875 Q 2.96240234375 0.5458984375 2.9599609375 0.52197265625 Q 2.95751953125 0.498046875 2.95556640625 0.467529296875 Q 2.95361328125 0.43701171875 2.9521484375 0.3984375 Q 2.95068359375 0.35986328125 2.95068359375 0.3115234375 L 2.95068359375 0.00732421875 L 3.06396484375 0.00732421875 L 3.06396484375 0.84130859375 L 2.96044921875 0.84130859375 L 2.75927734375 0.2978515625 L 2.75537109375 0.2978515625 Q 2.7568359375 0.31982421875 2.75927734375 0.345458984375 Q 2.76171875 0.37109375 2.763671875 0.40576171875 Q 2.765625 0.4404296875 2.76708984375 0.486572265625 Q 2.7685546875 0.53271484375 2.7685546875 0.59619140625 L 2.7685546875 0.84130859375 L 2.65625 0.84130859375 L 2.65625 0.00732421875 M 3.29833984375 0.00732421875 L 3.44384765625 0.00732421875 L 3.59814453125 0.84130859375 L 3.47021484375 0.84130859375 L 3.447265625 0.69189453125 L 3.294921875 0.69189453125 L 3.27294921875 0.84130859375 L 3.14453125 0.84130859375 L 3.29833984375 0.00732421875 M 3.4326171875 0.5966796875 L 3.3740234375 0.18115234375 L 3.36865234375 0.18115234375 L 3.3095703125 0.5966796875 L 3.4326171875 0.5966796875 M 3.6787109375 0.00732421875 L 3.81591796875 0.00732421875 Q 3.83935546875 0.00732421875 3.867431640625 0.00927734375 Q 3.8955078125 0.01123046875 3.923583984375 0.018798828125 Q 3.95166015625 0.0263671875 3.977783203125 0.04150390625 Q 4.00390625 0.056640625 4.024169921875 0.0830078125 Q 4.04443359375 0.109375 4.056640625 0.149169921875 Q 4.06884765625 0.18896484375 4.06884765625 0.24560546875 L 4.06884765625 0.2666015625 Q 4.06884765625 0.36181640625 4.04150390625 0.421630859375 Q 4.01416015625 0.4814453125 3.9609375 0.5078125 L 4.0947265625 0.84130859375 L 3.9609375 0.84130859375 L 3.85009765625 0.529296875 L 3.802734375 0.529296875 L 3.802734375 0.84130859375 L 3.6787109375 0.84130859375 L 3.6787109375 0.00732421875 M 3.82177734375 0.43798828125 Q 3.85498046875 0.43798828125 3.8779296875 0.4306640625 Q 3.90087890625 0.42333984375 3.9150390625 0.406005859375 Q 3.92919921875 0.388671875 3.935546875 0.360107421875 Q 3.94189453125 0.33154296875 3.94189453125 0.28955078125 L 3.94189453125 0.2236328125 Q 3.94189453125 0.19140625 3.93603515625 0.16796875 Q 3.93017578125 0.14453125 3.916259765625 0.12939453125 Q 3.90234375 0.1142578125 3.87939453125 0.10693359375 Q 3.8564453125 0.099609375 3.82177734375 0.099609375 L 3.802734375 0.099609375 L 3.802734375 0.43798828125 L 3.82177734375 0.43798828125" fill="#0e0904" fill-rule="nonzero"></path></g><g></g><g clip-path="url(#SvgjsClipPath1034)"><g clip-path="url(#SvgjsClipPath1032a3a771a5-550b-49db-958d-1f72ad89ddd1)"><path d=" M 4.753716380635246 0.25722339919645565 L 4.522726856595325 -0.187040662829197 L 4.985053257342896 0.07989986232069679 L 5.4472059817566025 -0.187040662829197 L 5.216216457716682 0.25722339919645565 L 4.985053257342896 0.3906068236044703 L 4.753716380635246 0.25722339919645565 Z" fill="#bfbe5f" transform="matrix(1,0,0,1,0,0)" fill-rule="evenodd"></path></g><g clip-path="url(#SvgjsClipPath1032a3a771a5-550b-49db-958d-1f72ad89ddd1)"><path d=" M 5.019614847781952 0.7172920076037871 L 5.2886394889382204 1.1396728515625 L 5.2886394889382204 0.6059654775965772 L 5.750792213351928 0.33919862878054796 L 5.250604371821873 0.31714173437974347 L 5.019788524115817 0.450525158787758 L 5.019614847781952 0.7172920076037871 Z" fill="#0e0904" transform="matrix(1,0,0,1,0,0)" fill-rule="evenodd"></path></g><g clip-path="url(#SvgjsClipPath1032a3a771a5-550b-49db-958d-1f72ad89ddd1)"><path d=" M 4.7193284665300546 0.3169680580458789 L 4.219140625 0.3390249524466834 L 4.681293349413706 0.6059654775965772 L 4.681293349413706 1.1396728515625 L 4.95049166690384 0.7172920076037871 L 4.9503179905699755 0.45035148245389356 L 4.7193284665300546 0.3169680580458789 Z" fill="#8c1627" transform="matrix(1,0,0,1,0,0)" fill-rule="evenodd"></path></g><g clip-path="url(#SvgjsClipPath1032a3a771a5-550b-49db-958d-1f72ad89ddd1)"><path d=" M 5.106453014714251 -0.0810980991717884 C 5.068082507096562 -0.01399336035214449 4.982582563661195 0.009307650208251472 4.915470659503647 -0.029050323503076847 C 4.848358755346099 -0.06740829721440303 4.825041776259326 -0.15290388719922393 4.863387214726236 -0.22002295435358718 C 4.901732653193137 -0.28714202150794826 4.987223886745038 -0.3104749683077167 5.054350114554856 -0.27214206642285066 C 5.086636528470509 -0.2537578957254222 5.110277601421975 -0.22327866165430904 5.120053361200396 -0.18743420913345782 C 5.129829120978808 -0.15158975661260662 5.12493550004134 -0.11332833329905875 5.106453014714242 -0.0810980991717884 Z" fill="#bfbe5f" transform="matrix(1,0,0,1,0,0)" fill-rule="evenodd"></path></g><g clip-path="url(#SvgjsClipPath1032a3a771a5-550b-49db-958d-1f72ad89ddd1)"><path d=" M 5.36748854451275 0.7917991548317017 C 5.338914771861401 0.7428683438587295 5.342657276248531 0.6815378554810422 5.376968589700753 0.6364444134391393 C 5.411279903152993 0.5913509713972364 5.469391736538289 0.5713897599026527 5.5241702358351565 0.5858811628984567 C 5.578948735132024 0.6003725658942649 5.619588230601939 0.6464579925678229 5.627113135460758 0.7026190159992834 C 5.634638040319586 0.7587800394307439 5.607563983185062 0.8139382715816229 5.558532511763815 0.8423389679863004 C 5.491815102215375 0.8810944040729468 5.406314431671811 0.8584755903200579 5.36748854451275 0.7917991548317017 Z" fill="#0e0904" transform="matrix(1,0,0,1,0,0)" fill-rule="evenodd"></path></g><g clip-path="url(#SvgjsClipPath1032a3a771a5-550b-49db-958d-1f72ad89ddd1)"><path d=" M 4.602617970173044 0.7917991548317017 C 4.631079876931949 0.7429209802748066 4.627287528870522 0.6817090559815031 4.593010001888047 0.636717865417865 C 4.55873247490558 0.5917266748542247 4.500723503552831 0.5718208761487281 4.446043439754673 0.5862862384807866 C 4.391363375956515 0.6007516008128408 4.3507858859783335 0.6467379997431579 4.343239786060641 0.7027934406958414 C 4.33569368614294 0.7588488816485269 4.362665791707499 0.8139287064569108 4.41157400292197 0.8423389679863004 C 4.47829141247041 0.8810944040729468 4.563792083013974 0.8584755903200579 4.602617970173044 0.7917991548317017 Z" fill="#8c1627" transform="matrix(1,0,0,1,0,0)" fill-rule="evenodd"></path></g></g></g><defs><clipPath id="SvgjsClipPath1034"><path d=" M 4.219140625 -0.2905517578125 h 1.531651588351928 v 1.430224609375 h -1.531651588351928 Z"></path></clipPath><clipPath id="SvgjsClipPath1032a3a771a5-550b-49db-958d-1f72ad89ddd1"><path d=" M 4.219140625 -0.2905517578125 L 5.750792213351928 -0.2905517578125 L 5.750792213351928 1.1396728515625 L 4.219140625 1.1396728515625 Z"></path></clipPath></defs></svg>