<svg width="24" height="43" viewBox="0 0 24 43" fill="none" xmlns="http://www.w3.org/2000/svg">
<path d="M2.82371 25.2631L2.81464 25.253L2.8054 25.2432C2.42781 24.8392 2.09705 24.297 1.8616 23.6407C1.6265 22.9854 1.5 22.2532 1.5 21.5021C1.5 20.751 1.6265 20.0188 1.8616 19.3635C2.09705 18.7072 2.42781 18.165 2.8054 17.761L2.81464 17.7511L2.82371 17.7411L16.4139 2.66556C17.0359 1.99875 17.7272 1.63776 18.389 1.53314C19.0453 1.42937 19.7345 1.56697 20.3965 1.98721L20.416 1.99959L20.4359 2.01137C20.968 2.32656 21.4866 2.8826 21.8773 3.67768C22.2663 4.46932 22.4904 5.42388 22.5 6.42444V36.5797C22.4904 37.5803 22.2663 38.5349 21.8773 39.3265C21.4866 40.1216 20.968 40.6776 20.4359 40.9928L20.427 40.9981L20.4182 41.0035C19.8734 41.3364 19.3123 41.4949 18.7666 41.5C17.9928 41.4997 17.1567 41.146 16.4172 40.3422C16.4158 40.3407 16.4144 40.3392 16.413 40.3377L2.82371 25.2631Z" fill="#AAAAAA" stroke="#7D7878" stroke-width="3"/>
</svg>
