<svg width="25" height="44" viewBox="0 0 25 44" fill="none" xmlns="http://www.w3.org/2000/svg">
<path d="M21.9025 18.0742L21.9117 18.0841L21.9211 18.0939C22.3047 18.4921 22.6436 19.0293 22.8888 19.682C23.1337 20.3338 23.2712 21.064 23.2824 21.815C23.2937 22.566 23.1781 23.3 22.9529 23.9588C22.7273 24.6185 22.4047 25.1656 22.0332 25.5752L22.0241 25.5852L22.0152 25.5954L8.65222 40.8727C8.04029 41.5488 7.35449 41.9201 6.6944 42.0346C6.03964 42.1482 5.34854 42.0209 4.68025 41.6107L4.66056 41.5986L4.6405 41.5871C4.10371 41.2799 3.57693 40.7317 3.17434 39.9426C2.7735 39.1568 2.53511 38.2057 2.51056 37.2054L2.05897 7.05351C2.05355 6.05291 2.26335 5.09511 2.64048 4.29773C3.01926 3.49689 3.52938 2.93315 4.05673 2.61003L4.06554 2.60463L4.07428 2.59911C4.614 2.25809 5.17272 2.09121 5.71823 2.07789C6.49194 2.06657 7.33325 2.4077 8.08473 3.20034C8.08616 3.20184 8.08758 3.20335 8.089 3.20485L21.9025 18.0742Z" fill="#AAAAAA" stroke="#7D7878" stroke-width="3"/>
</svg>
